<svg xmlns="http://www.w3.org/2000/svg" width="18" height="18" viewBox="0 0 18 18">
  <metadata><?xpacket begin="﻿" id="W5M0MpCehiHzreSzNTczkc9d"?>
<x:xmpmeta xmlns:x="adobe:ns:meta/" x:xmptk="Adobe XMP Core 6.0-c002 79.164460, 2020/05/12-16:04:17        ">
   <rdf:RDF xmlns:rdf="http://www.w3.org/1999/02/22-rdf-syntax-ns#">
      <rdf:Description rdf:about=""
            xmlns:xmp="http://ns.adobe.com/xap/1.0/">
         <xmp:CreatorTool>Adobe Photoshop 21.2 (Windows)</xmp:CreatorTool>
      </rdf:Description>
   </rdf:RDF>
</x:xmpmeta>
                                                                                                    
                                                                                                    
                                                                                                    
                                                                                                    
                                                                                                    
                                                                                                    
                                                                                                    
                                                                                                    
                                                                                                    
                                                                                                    
                                                                                                    
                                                                                                    
                                                                                                    
                                                                                                    
                                                                                                    
                                                                                                    
                                                                                                    
                                                                                                    
                                                                                                    
                                                                                                    
                           
<?xpacket end="w"?></metadata>
<defs>
    <style>
      .cls-1 {
        fill: #fff;
        fill-rule: evenodd;
      }
    </style>
  </defs>
  <path id="Заливка_цветом_4" data-name="Заливка цветом 4" class="cls-1" d="M5.668,3A1.763,1.763,0,0,1,7.483,4.538v7.01c0,0.957.145,2.927-.194,3.5a1.927,1.927,0,0,1-1.452.933,1.517,1.517,0,0,1-.992-0.3,1.831,1.831,0,0,1-.775-1.059,3.561,3.561,0,0,1-.048-0.908V6.656a8.391,8.391,0,0,1,.121-2.522,2.074,2.074,0,0,1,.968-1.009A2.832,2.832,0,0,1,5.668,3Zm6.511,0a1.762,1.762,0,0,1,1.815,1.538v7.01c0.031,3.279-.064,3.269-0.194,3.5a2,2,0,0,1-1.452.933,2.018,2.018,0,0,1-.992-0.3,1.831,1.831,0,0,1-.775-1.059,3.563,3.563,0,0,1-.048-0.908V6.656a8.388,8.388,0,0,1,.121-2.522,2.219,2.219,0,0,1,.968-1.009A2.324,2.324,0,0,1,12.179,3Z"/>
</svg>
