<svg width="18" height="18" viewBox="0 0 18 18" fill="none" xmlns="http://www.w3.org/2000/svg">
<path fill-rule="evenodd" clip-rule="evenodd" d="M14 7H5V14C5 15.1046 5.89543 16 7 16H12C13.1046 16 14 15.1046 14 14V7ZM8 9.5C8 9.22386 7.77614 9 7.5 9C7.22386 9 7 9.22386 7 9.5V13.5C7 13.7761 7.22386 14 7.5 14C7.77614 14 8 13.7761 8 13.5L8 9.5ZM10 9.5C10 9.22386 9.77614 9 9.5 9C9.22386 9 9 9.22386 9 9.5L9 13.5C9 13.7761 9.22386 14 9.5 14C9.77614 14 10 13.7761 10 13.5V9.5ZM11.5 9C11.7761 9 12 9.22386 12 9.5V13.5C12 13.7761 11.7761 14 11.5 14C11.2239 14 11 13.7761 11 13.5V9.5C11 9.22386 11.2239 9 11.5 9Z" fill="white"/>
<path fill-rule="evenodd" clip-rule="evenodd" d="M9 2C7.89543 2 7 2.89543 7 4H4C3.44772 4 3 4.44772 3 5C3 5.55228 3.44772 6 4 6H15C15.5523 6 16 5.55228 16 5C16 4.44772 15.5523 4 15 4H12C12 2.89543 11.1046 2 10 2H9Z" fill="white"/>
</svg>
