<svg width="28" height="29" viewBox="0 0 28 29" fill="none" xmlns="http://www.w3.org/2000/svg">
<path fill-rule="evenodd" clip-rule="evenodd" d="M5.16201 12.3C5.38781 11.1262 5.84633 10.0033 6.51677 8.99987C7.50571 7.51983 8.91131 6.36628 10.5558 5.68509C12.2004 5.0039 14.01 4.82567 15.7558 5.17294C17.5016 5.5202 19.1053 6.37737 20.364 7.63604C21.6226 8.89472 22.4798 10.4984 22.8271 12.2442C23.1743 13.99 22.9961 15.7996 22.3149 17.4442C21.6337 19.0887 20.4802 20.4943 19.0001 21.4832C17.7793 22.299 16.3815 22.801 14.9303 22.9518C14.4184 23.005 14 22.5828 14 22.0681C14 21.5534 14.419 21.1424 14.9293 21.0754C16.0112 20.9333 17.0505 20.5443 17.9646 19.9335C19.1382 19.1494 20.0528 18.0349 20.593 16.7309C21.1331 15.4269 21.2744 13.9921 20.9991 12.6078C20.7237 11.2235 20.044 9.95198 19.046 8.95397C18.048 7.95596 16.7765 7.2763 15.3922 7.00095C14.0079 6.7256 12.5731 6.86692 11.2691 7.40704C9.96514 7.94716 8.85062 8.86182 8.06649 10.0354C7.28236 11.2089 6.86383 12.5886 6.86383 14L9.06863 14C9.78135 14 10.1383 14.8617 9.63432 15.3657L6 19L2.36568 15.3657C1.86171 14.8617 2.21865 14 2.93137 14L5 14C5 13.4267 5.05474 12.8576 5.16201 12.3ZM14.85 10C14.85 9.53057 14.4694 9.15001 14 9.15001C13.5306 9.15001 13.15 9.53057 13.15 10V13.691C13.15 14.2023 13.4389 14.6698 13.8963 14.8985L15.6199 15.7603C16.0398 15.9702 16.5503 15.8 16.7603 15.3801C16.9702 14.9603 16.8 14.4497 16.3801 14.2397L14.85 13.4747V10Z" fill="white"/>
</svg>
